# xmcd
#
# Track frame offsets:
#	150
#	19898
#	41555
#	62009
#	77888
#	89818
#	97648
#	114815
#	124434
#	147658
#	158891
#
# Disc length: 2423 seconds
#
# Revision: 0
# Processed by: cddbd v1.5.2PL0 Copyright (c) Steve Scherf et al.
# Submitted via: audiograbber 1.83.01
#
DISCID=9209750b
DTITLE=Nils Landgren and Johann Norberg - Chapter Two/2
DYEAR=1993
DGENRE=Jazz
TTITLE0=Get here
TTITLE1=Song for Nils
TTITLE2=Killing me softly
TTITLE3=The red moped
TTITLE4=Moon shadow
TTITLE5=Like someone in love
TTITLE6=Everything happens to me
TTITLE7=Waltz for Johanna
TTITLE8=Everything must change
TTITLE9=Morning song
TTITLE10=Birthday dance
EXTD=YEAR: 1993
EXTT0=
EXTT1=
EXTT2=
EXTT3=
EXTT4=
EXTT5=
EXTT6=
EXTT7=
EXTT8=
EXTT9=
EXTT10=
PLAYORDER=
